# xmcd
#
# Track frame offsets:
#	183
#	9695
#	23245
#	36855
#	50093
#	65653
#	79665
#	96293
#	106303
#	122008
#
# Disc length: 1867 seconds
# Revision: 8
# Processed by: cddbd v1.5.2PL0 Copyright (c) Steve Scherf et al.
# Submitted via: dBpowerAMP V12.0
#
DISCID=8207490a
DTITLE=Jennifer McCarter and The McCarters - Better Be Home Soon
DYEAR=1990
DGENRE=Country
TTITLE0=Up And Gone
TTITLE1=I Haven't Got A Prayer
TTITLE2=Shot Full Of Love
TTITLE3=Quit While I'm Behind
TTITLE4=Mountain Memories
TTITLE5=Better Be Home Soon
TTITLE6=Papa Sita
TTITLE7=Betcha Gonna Love Me
TTITLE8=Slow Country Dance
TTITLE9=I Don't Want To Cry Anymore
EXTD=
EXTT0=
EXTT1=
EXTT2=
EXTT3=
EXTT4=
EXTT5=
EXTT6=
EXTT7=
EXTT8=
EXTT9=
PLAYORDER=
